<mxfile host="Electron" modified="2024-05-25T16:26:21.288Z" agent="Mozilla/5.0 (Windows NT 10.0; Win64; x64) AppleWebKit/537.36 (KHTML, like Gecko) draw.io/24.4.8 Chrome/124.0.6367.207 Electron/30.0.6 Safari/537.36" etag="9d_3KI0DC1oGOhTUTuFg" version="24.4.8" type="device">
  <diagram name="第 1 页" id="TNKN5Bb-jwvda5z7Qb5G">
    <mxGraphModel dx="1047" dy="947" grid="1" gridSize="10" guides="1" tooltips="1" connect="1" arrows="1" fold="1" page="1" pageScale="1" pageWidth="1169" pageHeight="827" math="0" shadow="0">
      <root>
        <mxCell id="0" />
        <mxCell id="1" parent="0" />
        <mxCell id="Um0T3zaJozl1EZEWY1Aq-1" value="" style="group" vertex="1" connectable="0" parent="1">
          <mxGeometry x="480" y="80" width="170" height="30" as="geometry" />
        </mxCell>
        <mxCell id="Um0T3zaJozl1EZEWY1Aq-2" value="0" style="rounded=0;whiteSpace=wrap;html=1;fontStyle=1;fontSize=18;fillColor=#dae8fc;strokeColor=#6c8ebf;" vertex="1" parent="Um0T3zaJozl1EZEWY1Aq-1">
          <mxGeometry width="40" height="30" as="geometry" />
        </mxCell>
        <mxCell id="Um0T3zaJozl1EZEWY1Aq-3" value="[0,0]" style="rounded=0;whiteSpace=wrap;html=1;fontStyle=1;fontSize=18;fillColor=#dae8fc;strokeColor=#6c8ebf;" vertex="1" parent="Um0T3zaJozl1EZEWY1Aq-1">
          <mxGeometry x="40" width="90" height="30" as="geometry" />
        </mxCell>
        <mxCell id="Um0T3zaJozl1EZEWY1Aq-4" value="0" style="rounded=0;whiteSpace=wrap;html=1;fontStyle=1;fontSize=18;fillColor=#dae8fc;strokeColor=#6c8ebf;" vertex="1" parent="Um0T3zaJozl1EZEWY1Aq-1">
          <mxGeometry x="130" width="40" height="30" as="geometry" />
        </mxCell>
        <mxCell id="Um0T3zaJozl1EZEWY1Aq-5" value="" style="group" vertex="1" connectable="0" parent="1">
          <mxGeometry x="310" y="170" width="170" height="30" as="geometry" />
        </mxCell>
        <mxCell id="Um0T3zaJozl1EZEWY1Aq-6" value="1" style="rounded=0;whiteSpace=wrap;html=1;fontStyle=1;fontSize=18;fillColor=#dae8fc;strokeColor=#6c8ebf;" vertex="1" parent="Um0T3zaJozl1EZEWY1Aq-5">
          <mxGeometry width="40" height="30" as="geometry" />
        </mxCell>
        <mxCell id="Um0T3zaJozl1EZEWY1Aq-7" value="[2,0]" style="rounded=0;whiteSpace=wrap;html=1;fontStyle=1;fontSize=18;fillColor=#dae8fc;strokeColor=#6c8ebf;" vertex="1" parent="Um0T3zaJozl1EZEWY1Aq-5">
          <mxGeometry x="40" width="90" height="30" as="geometry" />
        </mxCell>
        <mxCell id="Um0T3zaJozl1EZEWY1Aq-8" value="2" style="rounded=0;whiteSpace=wrap;html=1;fontStyle=1;fontSize=18;fillColor=#dae8fc;strokeColor=#6c8ebf;" vertex="1" parent="Um0T3zaJozl1EZEWY1Aq-5">
          <mxGeometry x="130" width="40" height="30" as="geometry" />
        </mxCell>
        <mxCell id="Um0T3zaJozl1EZEWY1Aq-9" value="" style="group" vertex="1" connectable="0" parent="1">
          <mxGeometry x="650" y="170" width="170" height="30" as="geometry" />
        </mxCell>
        <mxCell id="Um0T3zaJozl1EZEWY1Aq-10" value="1" style="rounded=0;whiteSpace=wrap;html=1;fontStyle=1;fontSize=18;fillColor=#dae8fc;strokeColor=#6c8ebf;" vertex="1" parent="Um0T3zaJozl1EZEWY1Aq-9">
          <mxGeometry width="40" height="30" as="geometry" />
        </mxCell>
        <mxCell id="Um0T3zaJozl1EZEWY1Aq-11" value="[0,2]" style="rounded=0;whiteSpace=wrap;html=1;fontStyle=1;fontSize=18;fillColor=#dae8fc;strokeColor=#6c8ebf;" vertex="1" parent="Um0T3zaJozl1EZEWY1Aq-9">
          <mxGeometry x="40" width="90" height="30" as="geometry" />
        </mxCell>
        <mxCell id="Um0T3zaJozl1EZEWY1Aq-12" value="2" style="rounded=0;whiteSpace=wrap;html=1;fontStyle=1;fontSize=18;fillColor=#dae8fc;strokeColor=#6c8ebf;" vertex="1" parent="Um0T3zaJozl1EZEWY1Aq-9">
          <mxGeometry x="130" width="40" height="30" as="geometry" />
        </mxCell>
        <mxCell id="Um0T3zaJozl1EZEWY1Aq-22" value="" style="group" vertex="1" connectable="0" parent="1">
          <mxGeometry x="40" y="70" width="210" height="30" as="geometry" />
        </mxCell>
        <mxCell id="Um0T3zaJozl1EZEWY1Aq-14" value="" style="group;fillColor=#f8cecc;strokeColor=#b85450;container=0;" vertex="1" connectable="0" parent="Um0T3zaJozl1EZEWY1Aq-22">
          <mxGeometry width="170" height="30" as="geometry" />
        </mxCell>
        <mxCell id="Um0T3zaJozl1EZEWY1Aq-15" value="d" style="rounded=0;whiteSpace=wrap;html=1;fontStyle=1;fontSize=18;fillColor=#f8cecc;strokeColor=#b85450;" vertex="1" parent="Um0T3zaJozl1EZEWY1Aq-22">
          <mxGeometry width="40" height="30" as="geometry" />
        </mxCell>
        <mxCell id="Um0T3zaJozl1EZEWY1Aq-16" value="time[]" style="rounded=0;whiteSpace=wrap;html=1;fontStyle=1;fontSize=18;fillColor=#f8cecc;strokeColor=#b85450;" vertex="1" parent="Um0T3zaJozl1EZEWY1Aq-22">
          <mxGeometry x="40" width="90" height="30" as="geometry" />
        </mxCell>
        <mxCell id="Um0T3zaJozl1EZEWY1Aq-17" value="maxtime" style="rounded=0;whiteSpace=wrap;html=1;fontStyle=1;fontSize=18;fillColor=#f8cecc;strokeColor=#b85450;" vertex="1" parent="Um0T3zaJozl1EZEWY1Aq-22">
          <mxGeometry x="130" width="80" height="30" as="geometry" />
        </mxCell>
        <mxCell id="Um0T3zaJozl1EZEWY1Aq-23" value="" style="group" vertex="1" connectable="0" parent="1">
          <mxGeometry x="170" y="280" width="170" height="30" as="geometry" />
        </mxCell>
        <mxCell id="Um0T3zaJozl1EZEWY1Aq-24" value="2" style="rounded=0;whiteSpace=wrap;html=1;fontStyle=1;fontSize=18;fillColor=#dae8fc;strokeColor=#6c8ebf;" vertex="1" parent="Um0T3zaJozl1EZEWY1Aq-23">
          <mxGeometry width="40" height="30" as="geometry" />
        </mxCell>
        <mxCell id="Um0T3zaJozl1EZEWY1Aq-25" value="[5,0]" style="rounded=0;whiteSpace=wrap;html=1;fontStyle=1;fontSize=18;fillColor=#dae8fc;strokeColor=#6c8ebf;" vertex="1" parent="Um0T3zaJozl1EZEWY1Aq-23">
          <mxGeometry x="40" width="90" height="30" as="geometry" />
        </mxCell>
        <mxCell id="Um0T3zaJozl1EZEWY1Aq-26" value="5" style="rounded=0;whiteSpace=wrap;html=1;fontStyle=1;fontSize=18;fillColor=#dae8fc;strokeColor=#6c8ebf;" vertex="1" parent="Um0T3zaJozl1EZEWY1Aq-23">
          <mxGeometry x="130" width="40" height="30" as="geometry" />
        </mxCell>
        <mxCell id="Um0T3zaJozl1EZEWY1Aq-27" value="" style="group" vertex="1" connectable="0" parent="1">
          <mxGeometry x="370" y="280" width="170" height="30" as="geometry" />
        </mxCell>
        <mxCell id="Um0T3zaJozl1EZEWY1Aq-28" value="2" style="rounded=0;whiteSpace=wrap;html=1;fontStyle=1;fontSize=18;fillColor=#dae8fc;strokeColor=#6c8ebf;" vertex="1" parent="Um0T3zaJozl1EZEWY1Aq-27">
          <mxGeometry width="40" height="30" as="geometry" />
        </mxCell>
        <mxCell id="Um0T3zaJozl1EZEWY1Aq-29" value="[2,3]" style="rounded=0;whiteSpace=wrap;html=1;fontStyle=1;fontSize=18;fillColor=#dae8fc;strokeColor=#6c8ebf;" vertex="1" parent="Um0T3zaJozl1EZEWY1Aq-27">
          <mxGeometry x="40" width="90" height="30" as="geometry" />
        </mxCell>
        <mxCell id="Um0T3zaJozl1EZEWY1Aq-30" value="3" style="rounded=0;whiteSpace=wrap;html=1;fontStyle=1;fontSize=18;fillColor=#dae8fc;strokeColor=#6c8ebf;" vertex="1" parent="Um0T3zaJozl1EZEWY1Aq-27">
          <mxGeometry x="130" width="40" height="30" as="geometry" />
        </mxCell>
        <mxCell id="Um0T3zaJozl1EZEWY1Aq-31" value="" style="group" vertex="1" connectable="0" parent="1">
          <mxGeometry x="600" y="280" width="170" height="30" as="geometry" />
        </mxCell>
        <mxCell id="Um0T3zaJozl1EZEWY1Aq-32" value="2" style="rounded=0;whiteSpace=wrap;html=1;fontStyle=1;fontSize=18;fillColor=#dae8fc;strokeColor=#6c8ebf;" vertex="1" parent="Um0T3zaJozl1EZEWY1Aq-31">
          <mxGeometry width="40" height="30" as="geometry" />
        </mxCell>
        <mxCell id="Um0T3zaJozl1EZEWY1Aq-33" value="[3,2]" style="rounded=0;whiteSpace=wrap;html=1;fontStyle=1;fontSize=18;fillColor=#dae8fc;strokeColor=#6c8ebf;" vertex="1" parent="Um0T3zaJozl1EZEWY1Aq-31">
          <mxGeometry x="40" width="90" height="30" as="geometry" />
        </mxCell>
        <mxCell id="Um0T3zaJozl1EZEWY1Aq-34" value="3" style="rounded=0;whiteSpace=wrap;html=1;fontStyle=1;fontSize=18;fillColor=#dae8fc;strokeColor=#6c8ebf;" vertex="1" parent="Um0T3zaJozl1EZEWY1Aq-31">
          <mxGeometry x="130" width="40" height="30" as="geometry" />
        </mxCell>
        <mxCell id="Um0T3zaJozl1EZEWY1Aq-35" value="" style="group" vertex="1" connectable="0" parent="1">
          <mxGeometry x="800" y="280" width="170" height="30" as="geometry" />
        </mxCell>
        <mxCell id="Um0T3zaJozl1EZEWY1Aq-36" value="2" style="rounded=0;whiteSpace=wrap;html=1;fontStyle=1;fontSize=18;fillColor=#dae8fc;strokeColor=#6c8ebf;" vertex="1" parent="Um0T3zaJozl1EZEWY1Aq-35">
          <mxGeometry width="40" height="30" as="geometry" />
        </mxCell>
        <mxCell id="Um0T3zaJozl1EZEWY1Aq-37" value="[0,5]" style="rounded=0;whiteSpace=wrap;html=1;fontStyle=1;fontSize=18;fillColor=#dae8fc;strokeColor=#6c8ebf;" vertex="1" parent="Um0T3zaJozl1EZEWY1Aq-35">
          <mxGeometry x="40" width="90" height="30" as="geometry" />
        </mxCell>
        <mxCell id="Um0T3zaJozl1EZEWY1Aq-38" value="5" style="rounded=0;whiteSpace=wrap;html=1;fontStyle=1;fontSize=18;fillColor=#dae8fc;strokeColor=#6c8ebf;" vertex="1" parent="Um0T3zaJozl1EZEWY1Aq-35">
          <mxGeometry x="130" width="40" height="30" as="geometry" />
        </mxCell>
        <mxCell id="Um0T3zaJozl1EZEWY1Aq-39" style="rounded=0;orthogonalLoop=1;jettySize=auto;html=1;exitX=0.5;exitY=1;exitDx=0;exitDy=0;entryX=0.5;entryY=0;entryDx=0;entryDy=0;" edge="1" parent="1" source="Um0T3zaJozl1EZEWY1Aq-3" target="Um0T3zaJozl1EZEWY1Aq-7">
          <mxGeometry relative="1" as="geometry" />
        </mxCell>
        <mxCell id="Um0T3zaJozl1EZEWY1Aq-40" style="rounded=0;orthogonalLoop=1;jettySize=auto;html=1;exitX=0.5;exitY=1;exitDx=0;exitDy=0;" edge="1" parent="1" source="Um0T3zaJozl1EZEWY1Aq-3" target="Um0T3zaJozl1EZEWY1Aq-11">
          <mxGeometry relative="1" as="geometry" />
        </mxCell>
        <mxCell id="Um0T3zaJozl1EZEWY1Aq-41" style="rounded=0;orthogonalLoop=1;jettySize=auto;html=1;exitX=0.5;exitY=1;exitDx=0;exitDy=0;entryX=0.5;entryY=0;entryDx=0;entryDy=0;" edge="1" parent="1" source="Um0T3zaJozl1EZEWY1Aq-7" target="Um0T3zaJozl1EZEWY1Aq-25">
          <mxGeometry relative="1" as="geometry" />
        </mxCell>
        <mxCell id="Um0T3zaJozl1EZEWY1Aq-42" style="rounded=0;orthogonalLoop=1;jettySize=auto;html=1;exitX=0.5;exitY=1;exitDx=0;exitDy=0;entryX=0.5;entryY=0;entryDx=0;entryDy=0;" edge="1" parent="1" source="Um0T3zaJozl1EZEWY1Aq-7" target="Um0T3zaJozl1EZEWY1Aq-29">
          <mxGeometry relative="1" as="geometry" />
        </mxCell>
        <mxCell id="Um0T3zaJozl1EZEWY1Aq-43" style="rounded=0;orthogonalLoop=1;jettySize=auto;html=1;exitX=0.5;exitY=1;exitDx=0;exitDy=0;entryX=0.42;entryY=0.063;entryDx=0;entryDy=0;entryPerimeter=0;" edge="1" parent="1" source="Um0T3zaJozl1EZEWY1Aq-11" target="Um0T3zaJozl1EZEWY1Aq-33">
          <mxGeometry relative="1" as="geometry" />
        </mxCell>
        <mxCell id="Um0T3zaJozl1EZEWY1Aq-44" style="rounded=0;orthogonalLoop=1;jettySize=auto;html=1;exitX=0.5;exitY=1;exitDx=0;exitDy=0;" edge="1" parent="1" source="Um0T3zaJozl1EZEWY1Aq-11" target="Um0T3zaJozl1EZEWY1Aq-37">
          <mxGeometry relative="1" as="geometry" />
        </mxCell>
      </root>
    </mxGraphModel>
  </diagram>
</mxfile>
